{"title":"The Pirate(1948)MPEG-4[DaScubaDude}","uid":15339008,"size":1006417147,"categoryP":"video","categoryS":"movies","magnet":"?xt=urn:btih:842a7fc65709e14b84b07c068d23f8a034c8c02b&amp;dn=The+Pirate%281948%29MPEG-4%5BDaScubaDude%7D&amp;tr=udp%3A%2F%2Ftracker.leechers-paradise.org%3A6969&amp;tr=udp%3A%2F%2Fzer0day.ch%3A1337&amp;tr=udp%3A%2F%2Fopen.demonii.com%3A1337&amp;tr=udp%3A%2F%2Ftracker.coppersurfer.tk%3A6969&amp;tr=udp%3A%2F%2Fexodus.desync.com%3A6969","seeders":1,"leechers":1,"uploader":"dascuba","files":1,"time":1468810499,"description":"The Pirate (1948)\r\nApproved | 1h 42min | Adventure, Comedy, Musical | 11 June 1948 (USA)\r\nA girl is engaged to the local richman, but meanwhile she has dreams about the legendary pirate Macoco. A traveling singer falls in love with her and to impress her he poses as the pirate.\r\nDirector: Vincente Minnelli\r\nWriters: Albert Hackett (screenplay), Frances Goodrich (screenplay) |\r\nStars: Judy Garland, Gene Kelly, Walter Slezak |\r\n\r\nGeneral\r\nComplete name                            : The PirateTHE_PIRATE_Title1.mp4\r\nFormat                                   : MPEG-4\r\nFormat profile                           : Base Media\r\nCodec ID                                 : isom (isom/iso2/avc1/mp41)\r\nFile size                                : 960 MiB\r\nDuration                                 : 1h 41mn\r\nOverall bit rate                         : 1 322 Kbps\r\nMovie name                               : THE_PIRATE\r\nGenre                                    : Romance\r\nWriting application                      : Lavf54.6.100\r\n\r\nVideo\r\nID                                       : 1\r\nFormat                                   : AVC\r\nFormat/Info                              : Advanced Video Codec\r\nFormat profile                           :   \r\nFormat settings, CABAC                   : No\r\nFormat settings, ReFrames                : 6 frames\r\nCodec ID                                 : avc1\r\nCodec ID/Info                            : Advanced Video Coding\r\nDuration                                 : 1h 41mn\r\nBit rate                                 : 1 206 Kbps\r\nWidth                                    : 720 pixels\r\nHeight                                   : 540 pixels\r\nDisplay aspect ratio                     : 4:3\r\nFrame rate mode                          : Constant\r\nFrame rate                               : 29.970 (30000/1001) fps\r\nColor space                              : YUV\r\nChroma subsampling                       : 4:2:0\r\nBit depth                                : 8 bits\r\nScan type                                : Progressive\r\nBits/(Pixel*Frame)                       : 0.103\r\nStream size                              : 876 MiB (91%)\r\n\r\nAudio\r\nID                                       : 2\r\nFormat                                   : AAC\r\nFormat/Info                              : Advanced Audio Codec\r\nFormat profile                           : LC\r\nCodec ID                                 : 40\r\nDuration                                 : 1h 41mn\r\nBit rate mode                            : Constant\r\nBit rate                                 : 109 Kbps\r\nChannel(s)                               : 2 channels\r\nChannel(s)_Original                      : 1 channel\r\nChannel positions                        : Front: C\r\nSampling rate                            : 44.1 KHz\r\nFrame rate                               : 43.066 fps (1024 spf)\r\nCompression mode                         : Lossy\r\nStream size                              : 79.2 MiB (8%)\r\nDefault                                  : Yes\r\nAlternate group                          : 1","torrent":{"xt":"urn:btih:842a7fc65709e14b84b07c068d23f8a034c8c02b","amp;dn":"The+Pirate%281948%29MPEG-4%5BDaScubaDude%7D","amp;tr":["udp%3A%2F%2Ftracker.leechers-paradise.org%3A6969","udp%3A%2F%2Fzer0day.ch%3A1337","udp%3A%2F%2Fopen.demonii.com%3A1337","udp%3A%2F%2Ftracker.coppersurfer.tk%3A6969","udp%3A%2F%2Fexodus.desync.com%3A6969"],"infoHash":"842a7fc65709e14b84b07c068d23f8a034c8c02b","infoHashBuffer":{"type":"Buffer","data":[132,42,127,198,87,9,225,75,132,176,124,6,141,35,248,160,52,200,192,43]},"announce":[],"urlList":[]}}